<?xml version="1.0" encoding="utf-8"?>
<!-- Generator: Adobe Illustrator 27.0.1, SVG Export Plug-In . SVG Version: 6.00 Build 0)  -->
<svg version="1.1" id="Layer_1" xmlns="http://www.w3.org/2000/svg" xmlns:xlink="http://www.w3.org/1999/xlink" x="0px" y="0px"
	 viewBox="0 0 148.15 147.22" style="enable-background:new 0 0 148.15 147.22;" xml:space="preserve">
<style type="text/css">
	.st0{clip-path:url(#SVGID_00000145030844222818676040000015698481496723763370_);}
	
		.st1{clip-path:url(#SVGID_00000051350797651574326340000008505611698783024313_);fill:url(#SVGID_00000011022961236269801940000000913552835109904282_);}
	.st2{clip-path:url(#SVGID_00000076571235308261567700000006744975834417534896_);fill:#FFFFFF;}
	.st3{clip-path:url(#SVGID_00000145030844222818676040000015698481496723763370_);fill:#FFFFFF;}
</style>
<g id="Illustration_1_00000122685558232790543280000008316466253823189948_">
	<g>
		<defs>
			<rect id="SVGID_1_" x="54.16" y="53.48" width="40" height="40"/>
		</defs>
		<clipPath id="SVGID_00000039135379115314345230000001769255934391304093_">
			<use xlink:href="#SVGID_1_"  style="overflow:visible;"/>
		</clipPath>
		<g style="clip-path:url(#SVGID_00000039135379115314345230000001769255934391304093_);">
			<defs>
				<path id="SVGID_00000117671247362895899680000006725570104448552372_" d="M74.16,53.48c-11.05,0-20,8.95-20,20
					c0,11.05,8.95,20,20,20c11.03,0,19.97-8.93,20-19.95v-0.1C94.13,62.4,85.19,53.48,74.16,53.48z"/>
			</defs>
			<clipPath id="SVGID_00000183231857916506226730000008258166860629555892_">
				<use xlink:href="#SVGID_00000117671247362895899680000006725570104448552372_"  style="overflow:visible;"/>
			</clipPath>
			
				<linearGradient id="SVGID_00000083074937915293234510000012155844640469135776_" gradientUnits="userSpaceOnUse" x1="-222.7871" y1="-349.89" x2="-222.5131" y2="-349.89" gradientTransform="matrix(145.9964 0 0 -145.9964 32580.2773 -51009.207)">
				<stop  offset="0" style="stop-color:#76B72A"/>
				<stop  offset="1" style="stop-color:#009439"/>
			</linearGradient>
			
				<rect x="54.16" y="53.48" style="clip-path:url(#SVGID_00000183231857916506226730000008258166860629555892_);fill:url(#SVGID_00000083074937915293234510000012155844640469135776_);" width="40" height="40"/>
		</g>
		<g style="clip-path:url(#SVGID_00000039135379115314345230000001769255934391304093_);">
			<defs>
				<rect id="SVGID_00000152244020116802566400000018031347762100411278_" x="54.16" y="53.48" width="40" height="40"/>
			</defs>
			<clipPath id="SVGID_00000011718612145661791100000005459767178984826515_">
				<use xlink:href="#SVGID_00000152244020116802566400000018031347762100411278_"  style="overflow:visible;"/>
			</clipPath>
			<path style="clip-path:url(#SVGID_00000011718612145661791100000005459767178984826515_);fill:#FFFFFF;" d="M84.24,62.91
				c-0.64-1.02-1.57-1.85-2.67-2.37c-0.82-0.39-1.74-0.61-2.71-0.61h-1.73v6.79c-0.94-0.17-1.68-0.12-2.04-0.1l-0.02,0
				c-1.34,0.09-2.63,0.17-3.88,0.08v-0.44c0-1-0.22-1.95-0.61-2.79c-0.02-0.05-0.05-0.1-0.07-0.15c-0.17-0.33-0.36-0.65-0.57-0.95
				c-0.31-0.43-0.68-0.81-1.08-1.14c-0.28-0.23-0.58-0.43-0.9-0.61c-0.04-0.02-0.08-0.04-0.11-0.06c-0.6-0.31-1.25-0.52-1.94-0.61
				c-0.23-0.03-0.46-0.04-0.7-0.04c-0.23,0-0.47,0.01-0.69,0.04h-1.03v16.9c0.16,0.44,0.36,0.87,0.61,1.26
				c0.64,1.02,1.57,1.85,2.67,2.37c0.82,0.39,1.74,0.61,2.71,0.61h1.73v-6.66c0.52,0.07,1.01,0.11,1.42,0.14
				c1.2,0.09,2.21,0.02,3.18-0.05c0.46-0.03,0.91-0.06,1.35-0.07v0.31c0,1,0.22,1.95,0.61,2.79c0.02,0.05,0.05,0.1,0.07,0.15
				c0.17,0.33,0.36,0.65,0.57,0.95c0.31,0.43,0.68,0.81,1.08,1.14c0.28,0.23,0.58,0.43,0.9,0.61c0.04,0.02,0.08,0.04,0.11,0.06
				c0.6,0.31,1.25,0.52,1.94,0.61c0.23,0.03,0.46,0.04,0.7,0.04c0.23,0,0.46-0.01,0.69-0.04h1.03v-16.9
				C84.69,63.72,84.49,63.3,84.24,62.91 M64.09,60.64L64.09,60.64c0.03-0.01,0.06-0.01,0.09-0.02c0.12-0.03,0.24-0.05,0.36-0.06
				h1.32c0.12,0.02,0.24,0.04,0.36,0.06c0.56,0.11,1.1,0.32,1.59,0.61c0.89,0.52,1.63,1.3,2.12,2.24c0.27,0.5,0.46,1.06,0.57,1.64
				c0.03,0.16,0.06,0.33,0.07,0.5v1.03c-0.17-0.02-0.35-0.05-0.52-0.07c-0.75-0.13-1.89-0.32-3.11-1.09
				c-0.58-0.36-1.64-1.16-2.29-2.4c-0.12-0.22-0.33-0.63-0.46-1.21C64.09,61.35,64.08,60.89,64.09,60.64 M70.58,80.37
				c-0.36,0.07-0.73,0.11-1.12,0.11c-2.46,0-4.56-1.55-5.38-3.73v-9.16c0.22,0.7,0.51,1.39,0.85,2.05c0.17,0.33,0.33,0.6,0.43,0.77
				c0.85,1.4,1.78,2.3,1.96,2.46c0.91,0.85,2.12,1.26,3.26,1.46V80.37z M77.13,73.78c-0.46,0.01-0.93,0.04-1.4,0.07
				c-0.95,0.06-1.93,0.13-3.08,0.05c-0.43-0.03-0.94-0.07-1.47-0.14c-0.2-0.03-0.4-0.06-0.61-0.1c-1-0.2-2.03-0.55-2.8-1.27
				c-0.17-0.16-1.03-1-1.84-2.32c-0.1-0.16-0.25-0.42-0.41-0.73c-0.52-1-0.9-2.06-1.12-3.14c-0.17-0.84-0.23-1.63-0.27-2.68
				c0.73,1.3,1.84,2.14,2.45,2.52c1.34,0.85,2.6,1.06,3.36,1.19c0.21,0.04,0.42,0.07,0.63,0.09c0.2,0.02,0.41,0.04,0.61,0.06
				c1.28,0.09,2.58,0.01,3.93-0.08l0.03,0c0.35-0.02,1.08-0.07,2,0.11c0.04,0.01,0.07,0.02,0.11,0.02c0,0,0.21,0.05,0.5,0.13
				c0.21,0.06,0.45,0.14,0.69,0.23c1.74,0.71,3,2.47,3.41,3.05l0.01,0.01c0.43,0.61,1.5,2.28,1.98,4.55
				c0.19,0.89,0.28,1.76,0.33,2.4c0-0.01-0.01-0.01-0.01-0.02l-0.03-0.05c-0.43-0.78-1.09-1.96-2.3-2.76
				c-0.14-0.09-0.24-0.15-0.32-0.19c-1.25-0.72-2.76-0.91-2.82-0.92c-0.32-0.04-0.63-0.06-0.93-0.07
				C77.54,73.77,77.34,73.77,77.13,73.78 M84.19,80.39c-0.01,0-0.03,0.01-0.04,0.01c-0.12,0.02-0.24,0.04-0.36,0.06h-1.32
				c-0.12-0.02-0.24-0.04-0.36-0.06c-0.56-0.11-1.1-0.32-1.59-0.61c-0.89-0.52-1.63-1.3-2.12-2.24c-0.27-0.5-0.46-1.06-0.57-1.64
				c-0.03-0.16-0.06-0.33-0.07-0.5v-0.96c0.28,0.01,0.56,0.03,0.85,0.06c0.01,0,1.44,0.18,2.57,0.83c0.07,0.04,0.16,0.09,0.28,0.17
				c1.08,0.71,1.69,1.81,2.09,2.53l0.03,0.05c0.3,0.54,0.43,0.95,0.48,1.1c0.05,0.18,0.1,0.38,0.12,0.54
				c0.02,0.14,0.03,0.27,0.04,0.38C84.19,80.22,84.19,80.31,84.19,80.39 M84.24,74.29c-0.56-1.9-1.45-3.28-1.84-3.84l-0.01-0.01
				c-0.44-0.62-1.78-2.51-3.71-3.29c-0.34-0.14-0.69-0.24-0.94-0.31v-6.2c0.36-0.07,0.73-0.11,1.12-0.11c2.46,0,4.56,1.55,5.38,3.73
				V74.29z"/>
		</g>
		<path style="clip-path:url(#SVGID_00000039135379115314345230000001769255934391304093_);fill:#FFFFFF;" d="M59.85,82.48h0.41
			v1.28h1.6v-1.28h0.41v3.07h-0.41v-1.44h-1.6v1.44h-0.41V82.48z M63.77,85.56v-1.13c0-0.03-0.01-0.06-0.02-0.08l-1.08-1.86h0.47
			c0.28,0.5,0.72,1.29,0.86,1.56c0.13-0.27,0.59-1.06,0.88-1.56h0.44l-1.12,1.87c-0.01,0.02-0.02,0.04-0.02,0.08v1.12H63.77z
			 M66.76,82.48c0.86,0,1.45,0.59,1.45,1.51c0,0.91-0.57,1.57-1.46,1.57h-1.08v-3.07H66.76z M66.07,85.21h0.64
			c0.72,0,1.07-0.52,1.07-1.21c0-0.61-0.31-1.17-1.07-1.17h-0.65V85.21z M69.25,84.2v1.35h-0.4v-3.07h1.2
			c0.63,0,0.97,0.34,0.97,0.82c0,0.4-0.23,0.64-0.52,0.72c0.25,0.07,0.47,0.25,0.47,0.79v0.13c0,0.21-0.01,0.48,0.04,0.61h-0.4
			c-0.06-0.13-0.05-0.37-0.05-0.66v-0.07c0-0.44-0.12-0.63-0.67-0.63H69.25z M69.25,83.86h0.67c0.47,0,0.68-0.18,0.68-0.52
			c0-0.33-0.21-0.51-0.63-0.51h-0.71V83.86z M74.38,84c0,0.85-0.47,1.6-1.44,1.6c-0.9,0-1.41-0.7-1.41-1.58
			c0-0.88,0.52-1.58,1.44-1.58C73.83,82.44,74.38,83.09,74.38,84z M71.95,84.01c0,0.66,0.34,1.25,1,1.25c0.71,0,1-0.59,1-1.24
			c0-0.66-0.32-1.22-1-1.22C72.26,82.79,71.95,83.35,71.95,84.01z"/>
		<path style="clip-path:url(#SVGID_00000039135379115314345230000001769255934391304093_);fill:#FFFFFF;" d="M75.89,85.56
			l-1.2-3.11h0.09l0.67,1.73c0.19,0.5,0.41,1.06,0.49,1.29h0.01c0.07-0.2,0.32-0.81,0.5-1.27l0.69-1.74h0.1L76,85.56H75.89z
			 M79.55,83.95h-1.69v1.53h1.84l-0.02,0.08h-1.91v-3.11h1.87v0.08h-1.78v1.34h1.69V83.95z M80.39,84.03v1.52H80.3v-3.11h1.02
			c0.55,0,0.94,0.25,0.94,0.8c0,0.37-0.18,0.66-0.65,0.74c0.34,0.06,0.6,0.22,0.6,0.87v0.06c0,0.41,0.01,0.57,0.04,0.65h-0.1
			c-0.04-0.14-0.03-0.34-0.03-0.65v-0.04c0-0.55-0.14-0.83-0.83-0.83H80.39z M80.39,83.95h0.87c0.49,0,0.91-0.15,0.91-0.7
			c0-0.45-0.3-0.72-0.85-0.72h-0.93V83.95z M83.71,82.53h-1.1v-0.08h2.29v0.08h-1.1v3.03h-0.09V82.53z M85.48,82.45v3.11h-0.09
			v-3.11H85.48z M88.69,84.73c-0.14,0.42-0.45,0.87-1.18,0.87c-0.9,0-1.34-0.71-1.34-1.58c0-0.88,0.44-1.62,1.36-1.62
			c0.6,0,1.02,0.34,1.15,0.91h-0.09c-0.13-0.49-0.5-0.83-1.06-0.83c-0.89,0-1.27,0.72-1.27,1.53c0,0.77,0.38,1.5,1.25,1.5
			c0.6,0,0.93-0.34,1.08-0.78H88.69z"/>
	</g>
</g>
</svg>
