<?xml version="1.0" encoding="utf-8"?>
<!-- Generator: Adobe Illustrator 27.0.1, SVG Export Plug-In . SVG Version: 6.00 Build 0)  -->
<svg version="1.1" id="Layer_1" xmlns="http://www.w3.org/2000/svg" xmlns:xlink="http://www.w3.org/1999/xlink" x="0px" y="0px"
	 viewBox="0 0 430.43 99.43" style="enable-background:new 0 0 430.43 99.43;" xml:space="preserve">
<style type="text/css">
	.st0{clip-path:url(#SVGID_00000069381006887116482650000015362681752046769062_);}
	.st1{clip-path:url(#SVGID_00000149368724101902999230000005045902604742511005_);fill:#B4CCA6;}
	
		.st2{clip-path:url(#SVGID_00000072258428297673040510000014828443011235832761_);fill:url(#SVGID_00000037689300882468181290000003570438027692757925_);}
	.st3{clip-path:url(#SVGID_00000098215297281656562430000003267153139536401073_);fill:#4EA633;}
</style>
<g id="Illustration_17_00000181800114020427323690000001132877070865772675_">
	<g>
		<defs>
			<rect id="SVGID_1_" x="100.2" y="28.91" width="234.38" height="40"/>
		</defs>
		<clipPath id="SVGID_00000174576338069647051010000003886486987993790885_">
			<use xlink:href="#SVGID_1_"  style="overflow:visible;"/>
		</clipPath>
		<g style="clip-path:url(#SVGID_00000174576338069647051010000003886486987993790885_);">
			<defs>
				<rect id="SVGID_00000135674441021656016290000015153032898497833148_" x="100.2" y="28.91" width="234.38" height="40"/>
			</defs>
			<clipPath id="SVGID_00000075157680583549189960000009017517070798142862_">
				<use xlink:href="#SVGID_00000135674441021656016290000015153032898497833148_"  style="overflow:visible;"/>
			</clipPath>
			<path style="clip-path:url(#SVGID_00000075157680583549189960000009017517070798142862_);fill:#B4CCA6;" d="M148.75,58v7.96
				h-1.03V58H148.75z M150.63,61.79c0-0.6-0.02-1.07-0.05-1.54h0.92l0.06,0.94h0.03c0.28-0.54,0.94-1.07,1.89-1.07
				c0.78,0,2.01,0.47,2.01,2.43v3.41h-1.03v-3.29c0-0.92-0.35-1.7-1.32-1.7c-0.68,0-1.21,0.48-1.4,1.07
				c-0.04,0.13-0.07,0.31-0.07,0.48v3.44h-1.03V61.79z M162.11,57.58v6.91c0,0.51,0.02,1.08,0.05,1.47h-0.92l-0.05-0.99h-0.03
				c-0.32,0.64-1,1.12-1.94,1.12c-1.38,0-2.45-1.17-2.45-2.9c-0.01-1.91,1.18-3.07,2.57-3.07c0.88,0,1.47,0.41,1.72,0.87h0.02v-3.41
				H162.11z M161.08,62.57c0-0.14-0.01-0.31-0.04-0.44c-0.16-0.65-0.72-1.19-1.5-1.19c-1.08,0-1.72,0.94-1.72,2.2
				c0,1.16,0.58,2.12,1.7,2.12c0.69,0,1.33-0.47,1.52-1.25c0.04-0.14,0.05-0.28,0.05-0.45V62.57z M168.62,64.4
				c0,0.6,0.02,1.11,0.05,1.56h-0.92l-0.06-0.93h-0.03c-0.26,0.46-0.87,1.06-1.89,1.06c-0.89,0-1.97-0.5-1.97-2.5v-3.34h1.03v3.15
				c0,1.09,0.34,1.83,1.28,1.83c0.7,0,1.18-0.49,1.37-0.95c0.05-0.15,0.09-0.34,0.09-0.53v-3.5h1.03V64.4z M170.2,64.9
				c0.31,0.2,0.86,0.41,1.38,0.41c0.76,0,1.11-0.37,1.11-0.85c0-0.5-0.3-0.76-1.06-1.05c-1.03-0.37-1.52-0.93-1.52-1.62
				c0-0.92,0.75-1.67,1.97-1.67c0.58,0,1.08,0.16,1.4,0.35l-0.26,0.75c-0.22-0.14-0.64-0.34-1.17-0.34c-0.61,0-0.95,0.35-0.95,0.78
				c0,0.47,0.34,0.68,1.08,0.97c0.98,0.37,1.5,0.86,1.5,1.72c0,1.01-0.79,1.72-2.14,1.72c-0.62,0-1.2-0.16-1.6-0.4L170.2,64.9z
				 M176.27,58.61v1.64h1.49v0.79h-1.49v3.08c0,0.71,0.2,1.11,0.79,1.11c0.27,0,0.47-0.03,0.6-0.08l0.05,0.79
				c-0.2,0.08-0.52,0.14-0.93,0.14c-0.48,0-0.87-0.16-1.12-0.44c-0.29-0.31-0.4-0.82-0.4-1.49v-3.12h-0.88v-0.79h0.88v-1.38
				L176.27,58.61z M178.94,62.03c0-0.67-0.02-1.25-0.05-1.78h0.91l0.04,1.12h0.04c0.27-0.77,0.9-1.25,1.59-1.25
				c0.11,0,0.19,0.01,0.29,0.03v0.98c-0.11-0.02-0.21-0.03-0.35-0.03c-0.73,0-1.25,0.55-1.39,1.33c-0.03,0.15-0.04,0.32-0.04,0.48
				v3.05h-1.03V62.03z M184.01,58.64c0,0.35-0.25,0.65-0.66,0.65c-0.38,0-0.63-0.29-0.63-0.65c0-0.36,0.27-0.65,0.65-0.65
				C183.75,57.99,184.01,58.27,184.01,58.64z M182.85,65.96v-5.71h1.03v5.71H182.85z M188.78,65.96l-0.09-0.72h-0.03
				c-0.31,0.45-0.93,0.85-1.75,0.85c-1.15,0-1.74-0.82-1.74-1.64c0-1.38,1.23-2.14,3.43-2.13V62.2c0-0.46-0.13-1.32-1.3-1.32
				c-0.53,0-1.09,0.16-1.49,0.43l-0.24-0.69c0.47-0.31,1.16-0.5,1.88-0.5c1.75,0,2.17,1.19,2.17,2.34v2.14
				c0,0.49,0.02,0.97,0.09,1.37H188.78z M188.62,63.05c-1.12-0.02-2.41,0.18-2.41,1.28c0,0.68,0.45,0.99,0.97,0.99
				c0.75,0,1.23-0.47,1.39-0.96c0.04-0.11,0.05-0.23,0.05-0.33V63.05z M192.34,57.58v8.38h-1.03v-8.38H192.34z M197,60.25l1.12,3.2
				c0.19,0.53,0.34,1,0.47,1.47h0.03c0.13-0.47,0.29-0.95,0.48-1.47l1.12-3.2h1.09l-2.25,5.71h-0.99l-2.17-5.71H197z M204.69,65.28
				c0.74,0,1.2-0.13,1.58-0.29l0.18,0.74c-0.36,0.17-1,0.36-1.9,0.36c-1.75,0-2.81-1.17-2.81-2.88c0-1.73,1.02-3.08,2.69-3.08
				c1.86,0,2.35,1.63,2.35,2.69c0,0.22-0.01,0.37-0.04,0.49h-4C202.76,64.7,203.65,65.28,204.69,65.28z M205.78,62.55
				c0.01-0.65-0.27-1.68-1.43-1.68c-1.06,0-1.51,0.96-1.59,1.68H205.78z M208.07,62.03c0-0.67-0.02-1.25-0.05-1.78h0.91l0.04,1.12
				h0.04c0.27-0.77,0.9-1.25,1.59-1.25c0.11,0,0.19,0.01,0.29,0.03v0.98c-0.11-0.02-0.21-0.03-0.35-0.03
				c-0.73,0-1.25,0.55-1.39,1.33c-0.03,0.15-0.04,0.32-0.04,0.48v3.05h-1.03V62.03z M213.47,58.61v1.64h1.49v0.79h-1.49v3.08
				c0,0.71,0.2,1.11,0.79,1.11c0.27,0,0.47-0.03,0.6-0.08l0.05,0.79c-0.2,0.08-0.52,0.14-0.93,0.14c-0.48,0-0.87-0.16-1.12-0.44
				c-0.29-0.31-0.4-0.82-0.4-1.49v-3.12h-0.88v-0.79h0.88v-1.38L213.47,58.61z M217.29,58.64c0,0.35-0.25,0.65-0.66,0.65
				c-0.38,0-0.63-0.29-0.63-0.65c0-0.36,0.27-0.65,0.65-0.65C217.04,57.99,217.29,58.27,217.29,58.64z M216.13,65.96v-5.71h1.03
				v5.71H216.13z M221.33,66.08c-1.72,0-2.85-1.17-2.85-2.92c0-1.76,1.2-3.04,3.07-3.04c0.61,0,1.16,0.16,1.44,0.3l-0.23,0.8
				c-0.25-0.14-0.64-0.27-1.21-0.27c-1.3,0-2.02,0.98-2.01,2.16c0,1.32,0.85,2.14,1.99,2.14c0.58,0,0.98-0.15,1.27-0.27l0.18,0.78
				C222.69,65.89,222.1,66.08,221.33,66.08z M227.36,65.96l-0.09-0.72h-0.03c-0.31,0.45-0.93,0.85-1.75,0.85
				c-1.15,0-1.74-0.82-1.74-1.64c0-1.38,1.23-2.14,3.43-2.13V62.2c0-0.46-0.13-1.32-1.3-1.32c-0.53,0-1.09,0.16-1.49,0.43
				l-0.24-0.69c0.47-0.31,1.16-0.5,1.88-0.5c1.75,0,2.17,1.19,2.17,2.34v2.14c0,0.49,0.02,0.97,0.09,1.37H227.36z M227.2,63.05
				c-1.12-0.02-2.41,0.18-2.41,1.28c0,0.68,0.45,0.99,0.97,0.99c0.75,0,1.23-0.47,1.39-0.96c0.04-0.11,0.05-0.23,0.05-0.33V63.05z
				 M230.92,57.58v8.38h-1.03v-8.38H230.92z M235.18,57.58h1.03v3.56h0.02c0.17-0.29,0.43-0.55,0.75-0.73
				c0.3-0.18,0.67-0.29,1.06-0.29c0.77,0,1.99,0.47,1.99,2.44v3.4H239v-3.29c0-0.92-0.35-1.7-1.32-1.7c-0.68,0-1.2,0.47-1.4,1.04
				c-0.05,0.15-0.07,0.3-0.07,0.49v3.45h-1.03V57.58z M241.96,60.25l1.25,3.37c0.13,0.38,0.27,0.83,0.37,1.16h0.03
				c0.1-0.34,0.23-0.77,0.36-1.19l1.13-3.35h1.1l-1.56,4.07c-0.74,1.96-1.25,2.96-1.96,3.58c-0.51,0.44-1.02,0.62-1.27,0.67
				l-0.26-0.87c0.26-0.08,0.6-0.24,0.91-0.51c0.28-0.23,0.63-0.63,0.87-1.16c0.05-0.11,0.08-0.19,0.08-0.25
				c0-0.06-0.02-0.14-0.07-0.27l-2.11-5.27H241.96z M251.95,57.58v6.91c0,0.51,0.02,1.08,0.05,1.47h-0.92l-0.05-0.99H251
				c-0.32,0.64-1,1.12-1.94,1.12c-1.38,0-2.45-1.17-2.45-2.9c-0.01-1.91,1.18-3.07,2.57-3.07c0.88,0,1.47,0.41,1.72,0.87h0.02v-3.41
				H251.95z M250.92,62.57c0-0.14-0.01-0.31-0.04-0.44c-0.16-0.65-0.72-1.19-1.5-1.19c-1.08,0-1.72,0.94-1.72,2.2
				c0,1.16,0.58,2.12,1.7,2.12c0.7,0,1.33-0.47,1.52-1.25c0.04-0.14,0.05-0.28,0.05-0.45V62.57z M253.69,62.03
				c0-0.67-0.02-1.25-0.05-1.78h0.91l0.04,1.12h0.04c0.27-0.77,0.9-1.25,1.59-1.25c0.11,0,0.19,0.01,0.29,0.03v0.98
				c-0.11-0.02-0.21-0.03-0.35-0.03c-0.73,0-1.25,0.55-1.39,1.33c-0.03,0.15-0.04,0.32-0.04,0.48v3.05h-1.03V62.03z M262.6,63.05
				c0,2.11-1.47,3.04-2.84,3.04c-1.55,0-2.74-1.13-2.74-2.94c0-1.91,1.26-3.03,2.84-3.03C261.49,60.12,262.6,61.31,262.6,63.05z
				 M258.07,63.12c0,1.25,0.72,2.19,1.73,2.19c1,0,1.74-0.93,1.74-2.23c0-0.97-0.49-2.19-1.72-2.19
				C258.6,60.9,258.07,62.03,258.07,63.12z M263.87,60.25h0.93l0.06,0.97h0.02c0.42-0.7,1.1-1.1,2.03-1.1c1.38,0,2.42,1.16,2.42,2.9
				c0,2.06-1.26,3.07-2.6,3.07c-0.76,0-1.42-0.33-1.76-0.9h-0.02v3.11h-1.03v-6.19C263.91,61.38,263.89,60.79,263.87,60.25z
				 M264.95,63.64c0,0.15,0.02,0.29,0.04,0.42c0.19,0.73,0.82,1.22,1.55,1.22c1.1,0,1.74-0.9,1.74-2.21c0-1.14-0.6-2.12-1.7-2.12
				c-0.71,0-1.37,0.5-1.57,1.28c-0.03,0.13-0.07,0.29-0.07,0.42V63.64z M275.82,63.05c0,2.11-1.47,3.04-2.84,3.04
				c-1.55,0-2.74-1.13-2.74-2.94c0-1.91,1.26-3.03,2.84-3.03C274.71,60.12,275.82,61.31,275.82,63.05z M271.29,63.12
				c0,1.25,0.72,2.19,1.73,2.19c1,0,1.74-0.93,1.74-2.23c0-0.97-0.49-2.19-1.72-2.19C271.82,60.9,271.29,62.03,271.29,63.12z
				 M277.13,61.79c0-0.6-0.02-1.07-0.05-1.54H278l0.06,0.94h0.03c0.28-0.54,0.94-1.07,1.89-1.07c0.78,0,2.01,0.47,2.01,2.43v3.41
				h-1.03v-3.29c0-0.92-0.35-1.7-1.32-1.7c-0.68,0-1.21,0.48-1.4,1.07c-0.04,0.13-0.07,0.31-0.07,0.48v3.44h-1.03V61.79z
				 M284.85,58.64c0,0.35-0.25,0.65-0.66,0.65c-0.38,0-0.63-0.29-0.63-0.65c0-0.36,0.27-0.65,0.65-0.65
				C284.59,57.99,284.85,58.27,284.85,58.64z M283.69,65.96v-5.71h1.03v5.71H283.69z M288.88,66.08c-1.72,0-2.85-1.17-2.85-2.92
				c0-1.76,1.2-3.04,3.07-3.04c0.61,0,1.16,0.16,1.44,0.3l-0.23,0.8c-0.25-0.14-0.64-0.27-1.21-0.27c-1.3,0-2.02,0.98-2.01,2.16
				c0,1.32,0.85,2.14,1.99,2.14c0.58,0,0.98-0.15,1.27-0.27l0.18,0.78C290.25,65.89,289.65,66.08,288.88,66.08z M294.1,64.9
				c0.31,0.2,0.86,0.41,1.38,0.41c0.76,0,1.11-0.37,1.11-0.85c0-0.5-0.3-0.76-1.06-1.05c-1.03-0.37-1.52-0.93-1.52-1.62
				c0-0.92,0.75-1.67,1.97-1.67c0.58,0,1.08,0.16,1.4,0.35l-0.26,0.75c-0.22-0.14-0.64-0.34-1.17-0.34c-0.61,0-0.95,0.35-0.95,0.78
				c0,0.47,0.34,0.68,1.08,0.97c0.98,0.37,1.5,0.86,1.5,1.72c0,1.01-0.79,1.72-2.14,1.72c-0.62,0-1.2-0.16-1.6-0.4L294.1,64.9z
				 M299.3,60.25l1.25,3.37c0.13,0.38,0.27,0.83,0.37,1.16h0.03c0.1-0.34,0.23-0.77,0.36-1.19l1.13-3.35h1.1l-1.56,4.07
				c-0.74,1.96-1.25,2.96-1.96,3.58c-0.51,0.44-1.02,0.62-1.27,0.67l-0.26-0.87c0.26-0.08,0.6-0.24,0.91-0.51
				c0.28-0.23,0.63-0.63,0.87-1.16c0.05-0.11,0.08-0.19,0.08-0.25c0-0.06-0.02-0.14-0.07-0.27l-2.11-5.27H299.3z M304.27,64.9
				c0.31,0.2,0.86,0.41,1.38,0.41c0.76,0,1.11-0.37,1.11-0.85c0-0.5-0.3-0.76-1.06-1.05c-1.03-0.37-1.52-0.93-1.52-1.62
				c0-0.92,0.75-1.67,1.97-1.67c0.58,0,1.08,0.16,1.4,0.35l-0.26,0.75c-0.22-0.14-0.64-0.34-1.17-0.34c-0.61,0-0.95,0.35-0.95,0.78
				c0,0.47,0.34,0.68,1.08,0.97c0.98,0.37,1.5,0.86,1.5,1.72c0,1.01-0.79,1.72-2.14,1.72c-0.62,0-1.2-0.16-1.6-0.4L304.27,64.9z
				 M310.34,58.61v1.64h1.49v0.79h-1.49v3.08c0,0.71,0.2,1.11,0.79,1.11c0.27,0,0.46-0.03,0.6-0.08l0.05,0.79
				c-0.2,0.08-0.52,0.14-0.93,0.14c-0.48,0-0.87-0.16-1.12-0.44c-0.29-0.31-0.4-0.82-0.4-1.49v-3.12h-0.88v-0.79h0.88v-1.38
				L310.34,58.61z M315.47,65.28c0.74,0,1.2-0.13,1.58-0.29l0.18,0.74c-0.36,0.17-1,0.36-1.9,0.36c-1.75,0-2.81-1.17-2.81-2.88
				c0-1.73,1.02-3.08,2.69-3.08c1.86,0,2.35,1.63,2.35,2.69c0,0.22-0.01,0.37-0.04,0.49h-4C313.53,64.7,314.42,65.28,315.47,65.28z
				 M316.55,62.55c0.01-0.65-0.27-1.68-1.43-1.68c-1.06,0-1.51,0.96-1.59,1.68H316.55z M318.85,61.79c0-0.6-0.02-1.07-0.05-1.54h0.9
				l0.05,0.92h0.03c0.32-0.54,0.85-1.05,1.8-1.05c0.77,0,1.36,0.47,1.61,1.14h0.02c0.18-0.32,0.41-0.57,0.64-0.74
				c0.35-0.26,0.72-0.4,1.26-0.4c0.76,0,1.88,0.49,1.88,2.48v3.36h-1.01v-3.23c0-1.11-0.41-1.76-1.24-1.76
				c-0.6,0-1.05,0.43-1.24,0.93c-0.05,0.15-0.08,0.34-0.08,0.52v3.53h-1.01v-3.43c0-0.91-0.4-1.56-1.19-1.56
				c-0.65,0-1.12,0.52-1.29,1.04c-0.05,0.15-0.08,0.33-0.08,0.51v3.44h-1.01V61.79z M328.55,64.9c0.31,0.2,0.86,0.41,1.38,0.41
				c0.76,0,1.11-0.37,1.11-0.85c0-0.5-0.3-0.76-1.06-1.05c-1.03-0.37-1.52-0.93-1.52-1.62c0-0.92,0.75-1.67,1.97-1.67
				c0.58,0,1.08,0.16,1.4,0.35l-0.26,0.75c-0.22-0.14-0.64-0.34-1.17-0.34c-0.61,0-0.95,0.35-0.95,0.78c0,0.47,0.34,0.68,1.08,0.97
				c0.98,0.37,1.5,0.86,1.5,1.72c0,1.01-0.79,1.72-2.14,1.72c-0.62,0-1.2-0.16-1.6-0.4L328.55,64.9z"/>
		</g>
		<g style="clip-path:url(#SVGID_00000174576338069647051010000003886486987993790885_);">
			<defs>
				<path id="SVGID_00000168094121587467489280000011168847915007727007_" d="M132.97,66.62c-0.99-0.2-1.93-0.57-2.79-1.07
					c-1.56-0.92-2.86-2.29-3.73-3.94c-0.47-0.89-0.81-1.86-1.01-2.88c-0.06-0.29-0.1-0.58-0.13-0.88v-1.69
					c0.49,0.01,0.99,0.05,1.5,0.11c0.02,0,2.53,0.32,4.52,1.47c0.13,0.07,0.28,0.16,0.49,0.3c1.9,1.25,2.97,3.18,3.67,4.45
					l0.05,0.09c0.52,0.94,0.76,1.67,0.84,1.94c0.1,0.32,0.17,0.66,0.21,0.95c0.04,0.24,0.06,0.47,0.07,0.68
					c-0.01,0.17-0.01,0.33-0.02,0.46c-0.03,0.01-0.05,0.01-0.08,0.02c-0.21,0.04-0.43,0.08-0.64,0.11h-2.32
					C133.39,66.7,133.18,66.66,132.97,66.62 M101.27,60.2V44.08c0.39,1.23,0.89,2.44,1.5,3.61c0.3,0.58,0.58,1.06,0.77,1.36
					c1.5,2.46,3.13,4.04,3.44,4.33c1.6,1.5,3.74,2.21,5.73,2.58v10.62c-0.64,0.13-1.29,0.19-1.96,0.19
					C106.41,66.76,102.7,64.03,101.27,60.2 M116.35,55.19c-0.76-0.06-1.65-0.13-2.58-0.25c-0.35-0.05-0.71-0.11-1.07-0.18
					c-1.76-0.34-3.57-0.98-4.92-2.24c-0.29-0.27-1.82-1.75-3.24-4.08c-0.17-0.28-0.44-0.74-0.73-1.29
					c-0.92-1.76-1.58-3.62-1.96-5.52c-0.3-1.48-0.41-2.86-0.48-4.71c1.28,2.29,3.24,3.76,4.32,4.44c2.36,1.49,4.58,1.87,5.91,2.09
					c0.37,0.06,0.74,0.11,1.11,0.16c0.36,0.04,0.71,0.07,1.07,0.1c2.25,0.15,4.53,0.01,6.91-0.14l0.04,0
					c0.62-0.04,1.9-0.12,3.52,0.19c0.07,0.01,0.13,0.03,0.2,0.04c0.01,0,0.37,0.08,0.88,0.22c0.36,0.1,0.8,0.24,1.21,0.41
					c3.07,1.24,5.27,4.35,6,5.37l0.01,0.01c0.76,1.08,2.63,4.01,3.48,8.01c0.33,1.57,0.49,3.1,0.57,4.22c0-0.01-0.01-0.02-0.02-0.03
					l-0.05-0.09c-0.76-1.37-1.92-3.45-4.05-4.86c-0.24-0.16-0.42-0.26-0.56-0.34c-2.2-1.27-4.85-1.6-4.96-1.61
					c-0.56-0.07-1.1-0.11-1.64-0.12c-0.36-0.01-0.71-0.01-1.07,0c-0.81,0.02-1.63,0.07-2.46,0.13c-1.1,0.07-2.23,0.15-3.45,0.15
					C117.69,55.26,117.04,55.24,116.35,55.19 M111.78,42.28c-1.32-0.22-3.32-0.56-5.47-1.93c-1.01-0.64-2.88-2.04-4.03-4.22
					c-0.2-0.39-0.58-1.11-0.81-2.14c-0.19-0.9-0.21-1.7-0.2-2.14v0c0.05-0.01,0.1-0.02,0.15-0.03c0.21-0.04,0.42-0.08,0.64-0.11
					h2.32c0.22,0.03,0.43,0.06,0.64,0.11c0.99,0.2,1.93,0.57,2.79,1.07c1.56,0.92,2.86,2.29,3.73,3.94
					c0.47,0.89,0.81,1.86,1.01,2.89c0.05,0.29,0.1,0.58,0.13,0.88v1.81C112.39,42.38,112.09,42.33,111.78,42.28 M133.49,49.13
					l-0.01-0.01c-0.77-1.09-3.13-4.41-6.52-5.78c-0.6-0.24-1.21-0.43-1.65-0.54V31.87c0.64-0.13,1.29-0.19,1.96-0.19
					c4.33,0,8.03,2.74,9.46,6.57v17.63C135.74,52.53,134.18,50.11,133.49,49.13 M102.02,30.65h-1.82v29.73
					c0.28,0.78,0.64,1.52,1.07,2.21c1.13,1.8,2.76,3.25,4.69,4.17c1.45,0.69,3.07,1.07,4.77,1.07h3.04V56.12
					c0.92,0.12,1.77,0.19,2.49,0.24c2.12,0.16,3.89,0.04,5.59-0.08c0.81-0.06,1.6-0.11,2.38-0.13v0.55c0,1.76,0.39,3.42,1.07,4.9
					c0.04,0.09,0.08,0.18,0.13,0.27c0.29,0.59,0.63,1.14,1.01,1.66c0.55,0.75,1.19,1.43,1.9,2.01c0.49,0.4,1.02,0.76,1.58,1.07
					c0.06,0.04,0.13,0.07,0.2,0.11c1.05,0.55,2.2,0.92,3.41,1.07c0.4,0.05,0.81,0.08,1.23,0.08c0.41,0,0.82-0.02,1.22-0.08h1.82
					V38.06c-0.28-0.78-0.64-1.52-1.07-2.21c-1.13-1.8-2.76-3.25-4.69-4.17c-1.45-0.69-3.07-1.07-4.77-1.07h-3.03v11.94
					c-1.66-0.29-2.95-0.21-3.59-0.17l-0.04,0c-2.36,0.15-4.63,0.29-6.83,0.13v-0.77c0-1.76-0.39-3.42-1.07-4.91
					c-0.04-0.09-0.09-0.18-0.13-0.27c-0.29-0.59-0.63-1.14-1.01-1.66c-0.55-0.75-1.19-1.43-1.9-2.01c-0.49-0.41-1.02-0.76-1.58-1.07
					c-0.07-0.04-0.13-0.07-0.2-0.11c-1.05-0.55-2.2-0.92-3.42-1.07c-0.4-0.05-0.81-0.08-1.23-0.08
					C102.82,30.57,102.42,30.6,102.02,30.65"/>
			</defs>
			<clipPath id="SVGID_00000023245224007224894690000008706900173650412674_">
				<use xlink:href="#SVGID_00000168094121587467489280000011168847915007727007_"  style="overflow:visible;"/>
			</clipPath>
			
				<linearGradient id="SVGID_00000035492610325498160330000002097002319748529283_" gradientUnits="userSpaceOnUse" x1="587.1255" y1="-355.8" x2="587.701" y2="-355.8" gradientTransform="matrix(65.3386 0 0 -65.3386 -38261.7422 -23198.2402)">
				<stop  offset="0" style="stop-color:#76B72A"/>
				<stop  offset="1" style="stop-color:#009439"/>
			</linearGradient>
			
				<rect x="100.2" y="30.57" style="clip-path:url(#SVGID_00000023245224007224894690000008706900173650412674_);fill:url(#SVGID_00000035492610325498160330000002097002319748529283_);" width="37.6" height="37.3"/>
		</g>
		<g style="clip-path:url(#SVGID_00000174576338069647051010000003886486987993790885_);">
			<defs>
				<rect id="SVGID_00000037669096343958060180000008892752957733100933_" x="100.2" y="28.91" width="234.38" height="40"/>
			</defs>
			<clipPath id="SVGID_00000181781757797890927470000010450594193658234015_">
				<use xlink:href="#SVGID_00000037669096343958060180000008892752957733100933_"  style="overflow:visible;"/>
			</clipPath>
			<path style="clip-path:url(#SVGID_00000181781757797890927470000010450594193658234015_);fill:#4EA633;" d="M147.48,33.32h2.62
				v8.26h10.31v-8.26h2.62V53.1h-2.62v-9.27H150.1v9.27h-2.62V33.32z M172.71,53.1v-7.25c0-0.19-0.05-0.39-0.13-0.53l-6.96-12h3
				c1.8,3.21,4.66,8.31,5.56,10.05c0.85-1.71,3.8-6.85,5.67-10.05h2.8l-7.19,12.04c-0.07,0.12-0.12,0.23-0.12,0.51v7.23H172.71z
				 M191.95,33.32c5.56,0,9.32,3.79,9.32,9.69c0,5.85-3.66,10.09-9.41,10.09h-6.98V33.32H191.95z M187.5,50.87h4.15
				c4.65,0,6.87-3.33,6.87-7.81c0-3.9-2.02-7.52-6.86-7.52h-4.16V50.87z M207.97,44.39v8.71h-2.6V33.32h7.73
				c4.06,0,6.23,2.2,6.23,5.29c0,2.57-1.48,4.13-3.37,4.65c1.61,0.43,3.02,1.64,3.02,5.07v0.85c0,1.36-0.06,3.09,0.27,3.92h-2.55
				c-0.36-0.85-0.33-2.39-0.33-4.25v-0.42c0-2.82-0.8-4.04-4.34-4.04H207.97z M207.97,42.18h4.3c3.02,0,4.35-1.14,4.35-3.36
				c0-2.1-1.37-3.29-4.06-3.29h-4.6V42.18z M240.92,43.1c0,5.44-3.05,10.28-9.28,10.28c-5.82,0-9.07-4.5-9.07-10.17
				c0-5.66,3.32-10.17,9.3-10.17C237.43,33.04,240.92,37.22,240.92,43.1z M225.31,43.12c0,4.27,2.19,8.02,6.44,8.02
				c4.59,0,6.42-3.78,6.42-8.01c0-4.26-2.07-7.86-6.41-7.86C227.28,35.27,225.31,38.91,225.31,43.12z"/>
			<path style="clip-path:url(#SVGID_00000181781757797890927470000010450594193658234015_);fill:#4EA633;" d="M250.65,53.1
				l-7.7-20.01h0.6l4.32,11.11c1.25,3.24,2.61,6.82,3.13,8.27h0.06c0.43-1.31,2.05-5.23,3.24-8.19l4.46-11.2h0.63l-8.01,20.01
				H250.65z M274.21,42.75h-10.89v9.83h11.85l-0.11,0.51h-12.31V33.09h12.02v0.51h-11.45v8.64h10.89V42.75z M279.61,43.29v9.81h-0.6
				V33.09h6.59c3.52,0,6.05,1.62,6.05,5.12c0,2.36-1.14,4.26-4.18,4.77c2.16,0.37,3.87,1.39,3.87,5.57v0.37
				c0,2.64,0.06,3.64,0.26,4.18h-0.63c-0.23-0.91-0.2-2.16-0.2-4.18v-0.26c0-3.52-0.91-5.37-5.37-5.37H279.61z M279.61,42.75h5.57
				c3.18,0,5.88-0.99,5.88-4.52c0-2.9-1.96-4.63-5.46-4.63h-6V42.75z M300.95,33.6h-7.08v-0.51h14.75v0.51h-7.11v19.5h-0.57V33.6z
				 M312.37,33.09V53.1h-0.57V33.09H312.37z M333,47.81c-0.88,2.73-2.87,5.57-7.59,5.57c-5.8,0-8.61-4.58-8.61-10.17
				c0-5.66,2.81-10.4,8.78-10.4c3.87,0,6.54,2.22,7.39,5.85h-0.6c-0.82-3.18-3.21-5.31-6.79-5.31c-5.74,0-8.19,4.6-8.19,9.86
				c0,4.97,2.47,9.63,8.04,9.63c3.87,0,6-2.19,6.96-5.03H333z"/>
		</g>
	</g>
</g>
</svg>
