<?xml version="1.0" encoding="utf-8"?>
<!-- Generator: Adobe Illustrator 27.0.1, SVG Export Plug-In . SVG Version: 6.00 Build 0)  -->
<svg version="1.1" id="Layer_1" xmlns="http://www.w3.org/2000/svg" xmlns:xlink="http://www.w3.org/1999/xlink" x="0px" y="0px"
	 viewBox="0 0 148.15 147.22" style="enable-background:new 0 0 148.15 147.22;" xml:space="preserve">
<style type="text/css">
	.st0{clip-path:url(#SVGID_00000108990631264234872000000012155162574507824289_);}
	
		.st1{clip-path:url(#SVGID_00000119813993993634766430000000332621969008849831_);fill:url(#SVGID_00000157294989915164501500000013725854836337510794_);}
	.st2{clip-path:url(#SVGID_00000082347787634132907910000005158883466606795443_);fill:#FFFFFF;}
	.st3{clip-path:url(#SVGID_00000108990631264234872000000012155162574507824289_);fill:#FFFFFF;}
</style>
<g id="Illustration_1_00000122685558232790543280000008316466253823189948_">
	<g>
		<defs>
			<rect id="SVGID_1_" x="59.16" y="58.48" width="30" height="30"/>
		</defs>
		<clipPath id="SVGID_00000103953970370464319290000017304196887216860089_">
			<use xlink:href="#SVGID_1_"  style="overflow:visible;"/>
		</clipPath>
		<g style="clip-path:url(#SVGID_00000103953970370464319290000017304196887216860089_);">
			<defs>
				<path id="SVGID_00000178897024335446230240000006970565434397210516_" d="M74.16,58.48c-8.28,0-15,6.72-15,15
					c0,8.28,6.72,15,15,15c8.27,0,14.98-6.69,15-14.96v-0.08C89.14,65.17,82.43,58.48,74.16,58.48z"/>
			</defs>
			<clipPath id="SVGID_00000025430418419848475550000016610943028176140215_">
				<use xlink:href="#SVGID_00000178897024335446230240000006970565434397210516_"  style="overflow:visible;"/>
			</clipPath>
			
				<linearGradient id="SVGID_00000110436091209479154070000005157506168736563590_" gradientUnits="userSpaceOnUse" x1="-222.7529" y1="-349.89" x2="-222.5474" y2="-349.89" gradientTransform="matrix(145.9964 0 0 -145.9964 32580.2773 -51009.207)">
				<stop  offset="0" style="stop-color:#76B72A"/>
				<stop  offset="1" style="stop-color:#009439"/>
			</linearGradient>
			
				<rect x="59.16" y="58.48" style="clip-path:url(#SVGID_00000025430418419848475550000016610943028176140215_);fill:url(#SVGID_00000110436091209479154070000005157506168736563590_);" width="30" height="30"/>
		</g>
		<g style="clip-path:url(#SVGID_00000103953970370464319290000017304196887216860089_);">
			<defs>
				<rect id="SVGID_00000033340465785299981280000002158754559276674953_" x="59.16" y="58.48" width="30" height="30"/>
			</defs>
			<clipPath id="SVGID_00000062875735307964952550000008764758760749728135_">
				<use xlink:href="#SVGID_00000033340465785299981280000002158754559276674953_"  style="overflow:visible;"/>
			</clipPath>
			<path style="clip-path:url(#SVGID_00000062875735307964952550000008764758760749728135_);fill:#FFFFFF;" d="M81.72,65.55
				c-0.48-0.77-1.18-1.39-2-1.78c-0.62-0.29-1.31-0.46-2.03-0.46h-1.29v5.09c-0.71-0.13-1.26-0.09-1.53-0.07l-0.02,0
				c-1.01,0.06-1.97,0.13-2.91,0.06v-0.33c0-0.75-0.16-1.46-0.46-2.09c-0.02-0.04-0.04-0.08-0.06-0.12
				c-0.12-0.25-0.27-0.49-0.43-0.71c-0.23-0.32-0.51-0.61-0.81-0.86c-0.21-0.17-0.44-0.33-0.67-0.46c-0.03-0.02-0.06-0.03-0.09-0.05
				c-0.45-0.23-0.94-0.39-1.46-0.46c-0.17-0.02-0.35-0.03-0.52-0.03c-0.18,0-0.35,0.01-0.52,0.03h-0.78v12.68
				c0.12,0.33,0.27,0.65,0.46,0.94c0.48,0.77,1.18,1.39,2,1.78c0.62,0.29,1.31,0.46,2.03,0.46h1.29v-4.99
				c0.39,0.05,0.76,0.08,1.06,0.1c0.9,0.07,1.66,0.02,2.38-0.03c0.35-0.02,0.68-0.05,1.02-0.05v0.23c0,0.75,0.16,1.46,0.46,2.09
				c0.02,0.04,0.04,0.08,0.06,0.12c0.12,0.25,0.27,0.49,0.43,0.71c0.23,0.32,0.51,0.61,0.81,0.86c0.21,0.17,0.44,0.33,0.67,0.46
				c0.03,0.02,0.06,0.03,0.09,0.05c0.45,0.24,0.94,0.39,1.46,0.46c0.17,0.02,0.35,0.03,0.52,0.03c0.18,0,0.35-0.01,0.52-0.03h0.78
				V66.49C82.06,66.16,81.9,65.84,81.72,65.55 M66.61,63.85L66.61,63.85c0.02-0.01,0.04-0.01,0.07-0.01
				c0.09-0.02,0.18-0.03,0.27-0.05h0.99c0.09,0.01,0.18,0.03,0.27,0.05c0.42,0.09,0.82,0.24,1.19,0.46
				c0.67,0.39,1.22,0.98,1.59,1.68c0.2,0.38,0.35,0.79,0.43,1.23c0.02,0.12,0.04,0.25,0.06,0.38v0.77
				c-0.13-0.02-0.26-0.03-0.39-0.06c-0.56-0.1-1.41-0.24-2.33-0.82c-0.43-0.27-1.23-0.87-1.72-1.8c-0.09-0.16-0.25-0.47-0.34-0.91
				C66.61,64.38,66.6,64.04,66.61,63.85 M71.47,78.65c-0.27,0.05-0.55,0.08-0.84,0.08c-1.85,0-3.42-1.17-4.03-2.8v-6.87
				c0.17,0.53,0.38,1.04,0.64,1.54c0.13,0.25,0.25,0.45,0.33,0.58c0.64,1.05,1.33,1.72,1.47,1.85c0.68,0.64,1.59,0.94,2.44,1.1
				V78.65z M76.39,73.7c-0.35,0.01-0.69,0.03-1.05,0.06c-0.71,0.05-1.45,0.1-2.31,0.03c-0.33-0.02-0.7-0.05-1.1-0.11
				c-0.15-0.02-0.3-0.05-0.46-0.08c-0.75-0.15-1.52-0.42-2.1-0.96c-0.12-0.12-0.78-0.75-1.38-1.74c-0.07-0.12-0.19-0.31-0.31-0.55
				c-0.39-0.75-0.67-1.54-0.84-2.35c-0.13-0.63-0.17-1.22-0.21-2.01c0.55,0.98,1.38,1.6,1.84,1.89c1,0.64,1.95,0.8,2.52,0.89
				c0.16,0.03,0.32,0.05,0.47,0.07c0.15,0.02,0.3,0.03,0.46,0.04c0.96,0.07,1.93,0,2.94-0.06l0.02,0c0.27-0.02,0.81-0.05,1.5,0.08
				c0.03,0.01,0.06,0.01,0.08,0.02c0,0,0.16,0.03,0.37,0.1c0.16,0.04,0.34,0.1,0.52,0.18c1.31,0.53,2.25,1.85,2.56,2.29l0,0.01
				c0.33,0.46,1.12,1.71,1.49,3.42c0.14,0.67,0.21,1.32,0.24,1.8c0,0-0.01-0.01-0.01-0.01l-0.02-0.04
				c-0.33-0.59-0.82-1.47-1.73-2.07c-0.1-0.07-0.18-0.11-0.24-0.15c-0.94-0.54-2.07-0.68-2.11-0.69c-0.24-0.03-0.47-0.05-0.7-0.05
				C76.69,73.7,76.54,73.7,76.39,73.7 M81.68,78.66c-0.01,0-0.02,0-0.03,0.01c-0.09,0.02-0.18,0.03-0.27,0.05h-0.99
				c-0.09-0.01-0.18-0.03-0.27-0.05c-0.42-0.09-0.82-0.24-1.19-0.46c-0.67-0.39-1.22-0.97-1.59-1.68c-0.2-0.38-0.35-0.79-0.43-1.23
				c-0.02-0.12-0.04-0.25-0.06-0.38v-0.72c0.21,0.01,0.42,0.02,0.64,0.05c0.01,0,1.08,0.14,1.93,0.63c0.05,0.03,0.12,0.07,0.21,0.13
				c0.81,0.54,1.27,1.36,1.57,1.9l0.02,0.04c0.22,0.4,0.33,0.71,0.36,0.83c0.04,0.14,0.07,0.28,0.09,0.4
				c0.02,0.1,0.02,0.2,0.03,0.29C81.69,78.54,81.68,78.6,81.68,78.66 M81.72,74.09c-0.42-1.43-1.09-2.46-1.38-2.88l0-0.01
				C80,70.74,79,69.32,77.55,68.74c-0.25-0.1-0.52-0.18-0.71-0.23v-4.65c0.27-0.05,0.55-0.08,0.84-0.08c1.84,0,3.42,1.17,4.03,2.8
				V74.09z"/>
		</g>
		<path style="clip-path:url(#SVGID_00000103953970370464319290000017304196887216860089_);fill:#FFFFFF;" d="M63.43,80.23h0.31
			v0.96h1.2v-0.96h0.31v2.3h-0.31v-1.08h-1.2v1.08h-0.31V80.23z M66.37,82.54v-0.85c0-0.02-0.01-0.05-0.02-0.06l-0.81-1.4h0.35
			c0.21,0.37,0.54,0.97,0.65,1.17c0.1-0.2,0.44-0.8,0.66-1.17h0.33l-0.84,1.4c-0.01,0.01-0.01,0.03-0.01,0.06v0.84H66.37z
			 M68.61,80.23c0.65,0,1.09,0.44,1.09,1.13c0,0.68-0.43,1.18-1.1,1.18h-0.81v-2.3H68.61z M68.1,82.28h0.48
			c0.54,0,0.8-0.39,0.8-0.91c0-0.46-0.24-0.88-0.8-0.88H68.1V82.28z M70.48,81.52v1.02h-0.3v-2.3h0.9c0.47,0,0.73,0.26,0.73,0.62
			c0,0.3-0.17,0.48-0.39,0.54c0.19,0.05,0.35,0.19,0.35,0.59v0.1c0,0.16-0.01,0.36,0.03,0.46h-0.3c-0.04-0.1-0.04-0.28-0.04-0.5
			v-0.05c0-0.33-0.09-0.47-0.51-0.47H70.48z M70.48,81.26h0.5c0.35,0,0.51-0.13,0.51-0.39c0-0.25-0.16-0.38-0.47-0.38h-0.54V81.26z
			 M74.32,81.37c0,0.63-0.36,1.2-1.08,1.2c-0.68,0-1.06-0.52-1.06-1.19c0-0.66,0.39-1.19,1.08-1.19
			C73.92,80.2,74.32,80.69,74.32,81.37z M72.5,81.37c0,0.5,0.25,0.93,0.75,0.93c0.54,0,0.75-0.44,0.75-0.93
			c0-0.5-0.24-0.92-0.75-0.92C72.73,80.46,72.5,80.88,72.5,81.37z"/>
		<path style="clip-path:url(#SVGID_00000103953970370464319290000017304196887216860089_);fill:#FFFFFF;" d="M75.46,82.54
			l-0.9-2.33h0.07l0.5,1.3c0.15,0.38,0.3,0.8,0.36,0.96h0.01c0.05-0.15,0.24-0.61,0.38-0.95l0.52-1.31h0.07l-0.93,2.33H75.46z
			 M78.2,81.33h-1.27v1.15h1.38l-0.01,0.06h-1.43V80.2h1.4v0.06h-1.33v1.01h1.27V81.33z M78.83,81.39v1.14h-0.07V80.2h0.77
			c0.41,0,0.71,0.19,0.71,0.6c0,0.27-0.13,0.5-0.49,0.56c0.25,0.04,0.45,0.16,0.45,0.65v0.04c0,0.31,0.01,0.42,0.03,0.49h-0.07
			c-0.03-0.11-0.02-0.25-0.02-0.49v-0.03c0-0.41-0.11-0.63-0.63-0.63H78.83z M78.83,81.33h0.65c0.37,0,0.69-0.12,0.69-0.53
			c0-0.34-0.23-0.54-0.64-0.54h-0.7V81.33z M81.32,80.26H80.5V80.2h1.72v0.06h-0.83v2.27h-0.07V80.26z M82.65,80.2v2.33h-0.07V80.2
			H82.65z M85.06,81.92c-0.1,0.32-0.33,0.65-0.88,0.65c-0.68,0-1-0.53-1-1.19c0-0.66,0.33-1.21,1.02-1.21
			c0.45,0,0.76,0.26,0.86,0.68h-0.07c-0.1-0.37-0.37-0.62-0.79-0.62c-0.67,0-0.95,0.54-0.95,1.15c0,0.58,0.29,1.12,0.94,1.12
			c0.45,0,0.7-0.26,0.81-0.59H85.06z"/>
	</g>
</g>
</svg>
